<?xml version="1.0" encoding="UTF-8"?>
<svg id="Layer_2" data-name="Layer 2" xmlns="http://www.w3.org/2000/svg" xmlns:xlink="http://www.w3.org/1999/xlink" viewBox="0 0 747.51 806.77">
  <defs>
    <style>
      .cls-1 {
        fill: url(#linear-gradient-2);
      }

      .cls-2 {
        fill: #fff;
      }

      .cls-3 {
        fill: #b8c9d8;
      }

      .cls-4 {
        fill: none;
        stroke: #a4b2bd;
        stroke-miterlimit: 10;
        stroke-width: 3px;
      }

      .cls-5 {
        fill: url(#linear-gradient-5);
      }

      .cls-6 {
        fill: #aabdcc;
      }

      .cls-7 {
        fill: #608da4;
      }

      .cls-8 {
        fill: #a8bdd2;
      }

      .cls-9 {
        fill: url(#linear-gradient-3);
      }

      .cls-10 {
        fill: url(#linear-gradient);
      }

      .cls-11 {
        fill: #7f99aa;
      }

      .cls-12 {
        fill: url(#linear-gradient-4);
      }
    </style>
    <linearGradient id="linear-gradient" x1="516.03" y1="311.8" x2="713.96" y2="594.44" gradientUnits="userSpaceOnUse">
      <stop offset=".05" stop-color="#a5bacb" stop-opacity="0"/>
      <stop offset=".24" stop-color="#a5bacb"/>
    </linearGradient>
    <linearGradient id="linear-gradient-2" x1="449.18" y1="46.43" x2="303.16" y2="192.46" gradientUnits="userSpaceOnUse">
      <stop offset="0" stop-color="#faf9f7"/>
      <stop offset="1" stop-color="#8baec1"/>
    </linearGradient>
    <linearGradient id="linear-gradient-3" x1="480.04" y1="341.28" x2="270.64" y2="550.68" gradientTransform="translate(424.15 -137.54) rotate(45)" xlink:href="#linear-gradient-2"/>
    <linearGradient id="linear-gradient-4" x1="706.36" y1="639.64" x2="576.98" y2="769.02" gradientTransform="translate(685.27 -249.14) rotate(45)" xlink:href="#linear-gradient-2"/>
    <linearGradient id="linear-gradient-5" x1="167.13" y1="639.64" x2="37.75" y2="769.02" gradientTransform="translate(713.43 337.53) rotate(67.5)" xlink:href="#linear-gradient-2"/>
  </defs>
  <g id="Layer_1-2" data-name="Layer 1">
    <path class="cls-10" d="m683.6,609.23s10.21-61.53-20.68-112.34-47.74-67.4-47.74-67.4c0,0-49.79-50.3-81.7-71.49s-49.53-45.7-49.53-45.7l9.36-7.11s6.31,8.6,21.13,20.61,55.42,42.74,55.42,42.74c0,0,22.78,18.18,31.59,26.35s35.24,34.22,35.24,34.22c0,0,31.08,37.4,38.23,54.51s11.42,21.83,16.82,39.8,7.63,27.7,7.63,27.7c0,0,2.6,14.55,2.61,23.06s-.9,31.11-.9,31.11l-1.78,11.24-15.7-7.29Z"/>
    <path class="cls-3" d="m340.63,227.61s-58.21,65.02-60.6,70.47-14.98,18.38-14.98,18.38c0,0-4.43,4.77-13.62,10.21s-39.49,29.96-39.49,29.96c0,0-75.91,65.02-88.17,89.19l-7.92-17.01s33.99-33.46,43.02-41.23,84.86-62.79,91.6-72.49,6.46-6.8,12.86-15.59,26.39-33.29,26.39-33.29l37.38-44.74,13.53,6.13Z"/>
    <path class="cls-6" d="m549.82,739.95s-36.51,6.89-81.19-4.6-90.53-47.49-90.53-47.49c0,0-45.3-38.55-61.13-59.49s-70.98-76.34-70.98-76.34c0,0-61.79-56.43-78.13-69.96s-43.91-44.17-48-50.04-21.7-23.23-34.98-55.66-14.3-47.74-14.3-47.74c0,0-10.72-50.04,9.19-92.94s50.81-65.36,50.81-65.36c0,0,53.62-43.91,134.81-29.11l.48-16.21s-68.88-18.96-136.3,30.24-73.14,97.35-73.14,97.35c0,0-14.45,42.07,2.96,100.03s50.18,92.57,50.18,92.57c0,0,18.42,24.69,63.39,59.81s70.31,56.11,70.31,56.11c0,0,16.8,14.33,19.46,21.55s14.18,18.9,14.18,18.9l39.46,45.39s36.51,43.34,61.72,60.5,42.14,26.78,42.14,26.78c0,0,33.84,18.07,66.05,23.29s52.64,2.21,52.64,2.21c0,0,17.2-2.75,23.1-5.14l-12.21-14.65Z"/>
    <path class="cls-8" d="m491.09,141.99s50.55-9.7,92.77,12.6,55.66,38.64,55.66,38.64c0,0,41.53,43.49,42.3,98.38s-17.36,86.81-17.36,86.81c0,0-21.7,43.24-40.34,62.6s-56.68,60.47-75.06,73.23-36,30.51-36,30.51c0,0-12.15,15.82-13.48,25.08l16.27-14.59,36.47-29.08,34.16-27.19,28.92-24.64s16.99-15.95,24.47-25.53,25.5-35.16,25.5-35.16c0,0,18.35-29.27,21.63-42.38s9.28-21.59,11.63-44.84,2.66-39.7,1.87-46.93-3.45-25.35-5.82-31.25-4.66-16.17-8.83-22.89-9.7-22.59-31.28-43.15-46.23-41.08-84.54-53.03-81.74-4.62-81.74-4.62l2.83,17.44Z"/>
    <path class="cls-4" d="m425.99,222.42s57.19,67.91,61.28,74.55,14.55,18.13,14.55,18.13c0,0,22.72,19.66,33.96,27.57s51.06,39.06,51.06,39.06c0,0,22.21,19.4,44.43,41.62s43.66,60.26,43.66,60.26c0,0,26.72,50.72,27.06,90.55s-3.4,44.09-3.4,44.09"/>
    <path class="cls-4" d="m485.99,125.14s89.87-26.81,173.36,62.04,16.09,210.64,16.09,210.64c0,0-31.15,51.74-57.36,74.21s-47.66,40.51-47.66,40.51c0,0-74.55,54.81-80,68.43s-86.38,101.02-86.38,101.02c0,0-49.45,50.81-115.83,70.21s-103.83,0-103.83,0"/>
    <path class="cls-4" d="m266.31,125.14s-89.87-26.81-173.36,62.04c-83.49,88.85-16.09,210.64-16.09,210.64,0,0,31.15,51.74,57.36,74.21,26.21,22.47,47.66,40.51,47.66,40.51,0,0,74.55,54.81,80,68.43,5.45,13.62,86.38,101.02,86.38,101.02,0,0,49.45,50.81,115.83,70.21s103.83,0,103.83,0"/>
    <path class="cls-4" d="m326.31,222.42s-57.19,67.91-61.28,74.55c-4.09,6.64-14.55,18.13-14.55,18.13,0,0-22.72,19.66-33.96,27.57-11.23,7.91-51.06,39.06-51.06,39.06,0,0-22.21,19.4-44.43,41.62-22.21,22.21-43.66,60.26-43.66,60.26,0,0-26.72,50.72-27.06,90.55s3.4,44.09,3.4,44.09"/>
    <g>
      <g>
        <circle class="cls-1" cx="378.09" cy="117.52" r="113.02"/>
        <path class="cls-11" d="m378.09,9c59.93,0,108.52,48.59,108.52,108.52s-48.59,108.52-108.52,108.52-108.52-48.59-108.52-108.52S318.16,9,378.09,9m0-9c-31.39,0-60.9,12.22-83.1,34.42-22.2,22.2-34.42,51.71-34.42,83.1s12.22,60.9,34.42,83.1,51.71,34.42,83.1,34.42,60.9-12.22,83.1-34.42,34.42-51.71,34.42-83.1-12.22-60.9-34.42-83.1C439,12.22,409.48,0,378.09,0h0Z"/>
      </g>
      <path class="cls-2" d="m378.09,230.54c-62.32,0-113.02-50.7-113.02-113.02S315.77,4.5,378.09,4.5s113.02,50.7,113.02,113.02-50.7,113.02-113.02,113.02Zm0-217.04c-57.36,0-104.02,46.66-104.02,104.02s46.66,104.02,104.02,104.02,104.02-46.66,104.02-104.02S435.45,13.5,378.09,13.5Z"/>
    </g>
    <g>
      <g>
        <circle class="cls-9" cx="378.09" cy="443.23" r="162.07" transform="translate(-202.67 397.17) rotate(-45)"/>
        <path class="cls-11" d="m378.09,286.65c86.47,0,156.57,70.1,156.57,156.57s-70.1,156.57-156.57,156.57-156.57-70.1-156.57-156.57,70.1-156.57,156.57-156.57m0-11c-22.62,0-44.56,4.43-65.23,13.17-19.96,8.44-37.88,20.52-53.26,35.91-15.39,15.39-27.47,33.31-35.91,53.26-8.74,20.67-13.17,42.61-13.17,65.23s4.43,44.56,13.17,65.23c8.44,19.96,20.52,37.88,35.91,53.26,15.39,15.39,33.31,27.47,53.26,35.91,20.67,8.74,42.61,13.17,65.23,13.17s44.56-4.43,65.23-13.17c19.96-8.44,37.88-20.52,53.26-35.91,15.39-15.39,27.47-33.31,35.91-53.26,8.74-20.67,13.17-42.61,13.17-65.23s-4.43-44.56-13.17-65.23c-8.44-19.96-20.52-37.88-35.91-53.26-15.39-15.39-33.31-27.47-53.26-35.91-20.67-8.74-42.61-13.17-65.23-13.17h0Z"/>
      </g>
      <path class="cls-2" d="m378.09,606.29c-89.91,0-163.06-73.15-163.06-163.06s73.15-163.06,163.06-163.06,163.06,73.15,163.06,163.06-73.15,163.06-163.06,163.06Zm0-313.14c-82.75,0-150.08,67.33-150.08,150.08s67.32,150.08,150.08,150.08,150.08-67.33,150.08-150.08-67.33-150.08-150.08-150.08Z"/>
    </g>
    <g>
      <g>
        <circle class="cls-12" cx="643.37" cy="702.63" r="100.14" transform="translate(-308.39 660.73) rotate(-45)"/>
        <path class="cls-11" d="m643.37,606.49c53.1,0,96.14,43.04,96.14,96.14s-43.04,96.14-96.14,96.14-96.14-43.04-96.14-96.14,43.04-96.14,96.14-96.14m0-8c-57.42,0-104.14,46.72-104.14,104.14s46.72,104.14,104.14,104.14,104.14-46.72,104.14-104.14-46.72-104.14-104.14-104.14h0Z"/>
      </g>
      <path class="cls-2" d="m643.37,802.75c-55.21,0-100.13-44.92-100.13-100.13s44.92-100.13,100.13-100.13,100.13,44.92,100.13,100.13-44.92,100.13-100.13,100.13Zm0-192.28c-50.81,0-92.15,41.34-92.15,92.15s41.34,92.15,92.15,92.15,92.15-41.34,92.15-92.15-41.34-92.15-92.15-92.15Z"/>
    </g>
    <g>
      <g>
        <circle class="cls-5" cx="104.14" cy="702.63" r="100.14" transform="translate(-584.86 529.96) rotate(-67.5)"/>
        <path class="cls-11" d="m104.14,606.49c53.1,0,96.14,43.04,96.14,96.14s-43.04,96.14-96.14,96.14-96.14-43.04-96.14-96.14,43.04-96.14,96.14-96.14m0-8c-57.42,0-104.14,46.72-104.14,104.14s46.72,104.14,104.14,104.14,104.14-46.72,104.14-104.14-46.72-104.14-104.14-104.14h0Z"/>
      </g>
      <path class="cls-2" d="m104.14,802.75c-55.21,0-100.13-44.92-100.13-100.13s44.92-100.13,100.13-100.13,100.13,44.92,100.13,100.13-44.92,100.13-100.13,100.13Zm0-192.28c-50.81,0-92.15,41.34-92.15,92.15s41.34,92.15,92.15,92.15,92.15-41.34,92.15-92.15-41.34-92.15-92.15-92.15Z"/>
    </g>
    <g>
      <path class="cls-7" d="m313.35,130.56c-1.55,0-3.01-.15-4.38-.44-1.37-.29-2.65-.73-3.85-1.32s-2.31-1.32-3.35-2.2l2.79-3.43c1.22,1.05,2.56,1.85,4.02,2.37s3.05.79,4.77.79c2.31,0,4.11-.43,5.38-1.3s1.91-2.07,1.91-3.63v-.02c0-1.22-.32-2.15-.97-2.79s-1.49-1.12-2.54-1.44c-1.05-.31-2.19-.58-3.44-.78-1.2-.21-2.41-.45-3.64-.73-1.22-.28-2.35-.71-3.37-1.31-1.03-.59-1.85-1.45-2.47-2.56-.62-1.11-.93-2.6-.93-4.46v-.02c0-2.97.99-5.28,2.97-6.91,1.98-1.63,4.77-2.45,8.37-2.45,1.71,0,3.39.27,5.03.82,1.64.55,3.24,1.39,4.79,2.52l-2.55,3.56c-1.22-.91-2.43-1.58-3.64-2.02-1.21-.44-2.42-.66-3.64-.66-2.18,0-3.88.44-5.09,1.31-1.21.87-1.81,2.11-1.81,3.7v.02c0,1.2.35,2.12,1.05,2.75s1.62,1.1,2.76,1.4c1.14.3,2.35.58,3.66.85,1.17.23,2.34.52,3.52.85,1.17.33,2.24.81,3.2,1.43.96.62,1.73,1.48,2.31,2.56.58,1.08.87,2.5.87,4.24v.04c0,2.94-1.03,5.22-3.08,6.83s-4.94,2.42-8.66,2.42Z"/>
      <path class="cls-7" d="m329.26,111.47v-4.04h10.28v4.04h-10.28Zm7.69,18.87c-1.88,0-3.23-.52-4.08-1.56s-1.26-2.53-1.26-4.48v-23.51h4.48v23.55c0,.54.11.97.33,1.27s.54.46.97.46h2.15v4.26h-2.59Z"/>
      <path class="cls-7" d="m350.18,107.42v13.86c0,1.6.41,2.83,1.22,3.7.81.87,1.96,1.31,3.44,1.31s2.62-.39,3.42-1.18c.8-.78,1.2-1.89,1.2-3.31l.31,4.77c-.41,1.03-1.13,1.94-2.15,2.76-1.03.81-2.37,1.22-4.02,1.22-2.52,0-4.46-.81-5.83-2.43-1.37-1.62-2.05-3.9-2.05-6.84v-13.86h4.48Zm9.27,22.81v-22.81h4.46v22.81h-4.46Z"/>
      <path class="cls-7" d="m377.95,130.63c-2.52,0-4.46-.81-5.83-2.43-1.37-1.62-2.05-3.9-2.05-6.84v-5.03c0-2.96.67-5.25,2.01-6.87,1.34-1.62,3.23-2.43,5.66-2.43,1.35,0,2.58.35,3.7,1.05,1.12.7,2.02,1.69,2.71,2.97l-.46,4.66c0-.97-.18-1.79-.53-2.48s-.86-1.21-1.53-1.57c-.67-.36-1.48-.54-2.43-.54-1.48,0-2.63.46-3.44,1.38s-1.22,2.22-1.22,3.89v4.97c0,1.66.41,2.93,1.22,3.83.81.9,1.96,1.35,3.44,1.35.95,0,1.76-.19,2.43-.56.67-.37,1.18-.91,1.53-1.61s.53-1.55.53-2.53l.31,4.81c-.41,1.03-1.12,1.94-2.12,2.76-1,.81-2.31,1.22-3.92,1.22Zm5.74-.4v-31.95h4.48v31.95h-4.48Z"/>
      <path class="cls-7" d="m404.32,130.56c-3.18,0-5.64-.89-7.38-2.66s-2.61-4.29-2.61-7.56v-2.57c0-3.4.84-6.03,2.52-7.89,1.68-1.86,4.04-2.79,7.09-2.79,2.87,0,5.09,1.05,6.67,3.16,1.58,2.11,2.36,5.07,2.36,8.88v1.49h-15.38v-3.6h11.12c-.13-1.85-.61-3.29-1.44-4.33-.83-1.04-1.94-1.56-3.33-1.56-1.69,0-3,.56-3.93,1.67s-1.41,2.69-1.41,4.72v2.9c0,1.89.5,3.34,1.5,4.35,1,1.01,2.41,1.52,4.23,1.52.91,0,1.81-.18,2.7-.55s1.69-.88,2.39-1.54l2.95,2.94c-1.13,1.08-2.4,1.92-3.8,2.52-1.41.59-2.82.89-4.24.89Z"/>
      <path class="cls-7" d="m419.11,130.23v-22.81h4.48v22.81h-4.48Zm13.84,0v-13.82c0-1.61-.41-2.86-1.24-3.74-.83-.88-2-1.32-3.53-1.32s-2.6.39-3.39,1.16c-.8.78-1.2,1.87-1.2,3.27l-.46-4.39c.7-1.38,1.62-2.44,2.76-3.19,1.14-.75,2.39-1.12,3.77-1.12,2.48,0,4.39.81,5.75,2.43,1.35,1.62,2.03,3.91,2.03,6.87v13.84h-4.48Z"/>
      <path class="cls-7" d="m442.48,111.47v-4.04h10.28v4.04h-10.28Zm7.69,18.87c-1.88,0-3.23-.52-4.08-1.56-.84-1.04-1.26-2.53-1.26-4.48v-23.51h4.48v23.55c0,.54.11.97.33,1.27s.54.46.97.46h2.15v4.26h-2.59Z"/>
    </g>
    <g>
      <path class="cls-7" d="m587.26,712.26v-27.69h3.88v27.69h-3.88Zm2-10.74v-3.69h8.85c1.27,0,2.29-.44,3.06-1.31.77-.88,1.15-2.02,1.15-3.45s-.38-2.61-1.15-3.49c-.77-.88-1.79-1.31-3.06-1.31h-8.85v-3.69h8.72c1.68,0,3.14.35,4.38,1.06,1.24.71,2.21,1.69,2.9,2.96.69,1.27,1.04,2.76,1.04,4.48s-.35,3.19-1.04,4.46c-.69,1.27-1.66,2.25-2.9,2.95s-2.7,1.05-4.38,1.05h-8.72Z"/>
      <path class="cls-7" d="m616.53,712.54c-2.42,0-4.24-.5-5.46-1.5-1.21-1-1.82-2.54-1.82-4.61s.55-3.44,1.67-4.41c1.11-.97,2.78-1.46,5-1.46h5.62l.27,3.12h-5.87c-1,0-1.76.23-2.27.68-.51.45-.76,1.14-.76,2.07,0,1,.34,1.75,1.01,2.23s1.68.72,3.03.72c1.47,0,2.58-.16,3.31-.48s1.1-.81,1.1-1.49l.4,2.78c-.34.53-.77.97-1.28,1.31s-1.09.6-1.74.77c-.65.17-1.39.26-2.22.26Zm4.84-.29v-12.53c0-1.29-.35-2.3-1.04-3.02-.69-.72-1.67-1.08-2.94-1.08-.77,0-1.54.12-2.29.35-.76.24-1.43.57-2.03,1.02l-2.84-1.94c.75-.9,1.74-1.6,2.96-2.1,1.22-.5,2.59-.75,4.08-.75,2.48,0,4.39.64,5.75,1.92s2.04,3.09,2.04,5.43v12.7h-3.69Z"/>
      <path class="cls-7" d="m630.96,712.26v-19.77h3.88v19.77h-3.88Zm10.87-15.08c-.34-.42-.77-.74-1.29-.95s-1.12-.32-1.81-.32c-1.23,0-2.19.34-2.87,1.02-.68.68-1.02,1.62-1.02,2.83l-.4-3.81c.6-1.17,1.38-2.08,2.35-2.74.97-.66,2.04-.99,3.21-.99.9,0,1.72.13,2.45.39.73.26,1.37.64,1.91,1.15l-2.53,3.43Z"/>
      <path class="cls-7" d="m655.32,712.54c-2.76,0-4.89-.77-6.4-2.3s-2.27-3.72-2.27-6.55v-2.23c0-2.95.73-5.22,2.18-6.84,1.45-1.61,3.5-2.42,6.14-2.42,2.49,0,4.42.91,5.78,2.74,1.36,1.83,2.05,4.39,2.05,7.69v1.29h-13.33v-3.12h9.64c-.11-1.6-.53-2.85-1.25-3.75-.72-.9-1.68-1.35-2.89-1.35-1.46,0-2.6.48-3.41,1.45s-1.22,2.33-1.22,4.09v2.51c0,1.64.43,2.89,1.3,3.77.87.88,2.09,1.31,3.67,1.31.79,0,1.57-.16,2.34-.48s1.47-.76,2.08-1.33l2.55,2.55c-.98.94-2.08,1.67-3.29,2.18-1.22.51-2.44.77-3.67.77Z"/>
      <path class="cls-7" d="m668.14,712.26v-19.77h3.88v19.77h-3.88Zm12,0v-11.98c0-1.4-.36-2.48-1.08-3.24-.72-.76-1.74-1.14-3.06-1.14s-2.25.34-2.94,1.01c-.69.67-1.04,1.62-1.04,2.84l-.4-3.81c.61-1.19,1.41-2.11,2.39-2.76.98-.65,2.07-.97,3.27-.97,2.15,0,3.81.7,4.98,2.1,1.17,1.4,1.76,3.39,1.76,5.95v12h-3.88Z"/>
      <path class="cls-7" d="m688.4,696v-3.5h8.91v3.5h-8.91Zm6.67,16.36c-1.62,0-2.8-.45-3.53-1.35-.73-.9-1.1-2.2-1.1-3.88v-20.38h3.88v20.41c0,.47.1.84.29,1.1s.47.4.84.4h1.87v3.69h-2.25Z"/>
    </g>
    <g>
      <path class="cls-7" d="m37.4,688.27v-3.69h19.54v3.69h-19.54Zm7.83,23.99v-25.42h3.88v25.42h-3.88Z"/>
      <path class="cls-7" d="m65.6,712.55c-2.75,0-4.89-.77-6.4-2.3s-2.27-3.72-2.27-6.55v-2.23c0-2.95.73-5.22,2.18-6.84,1.45-1.61,3.5-2.42,6.14-2.42,2.49,0,4.41.91,5.78,2.74,1.36,1.83,2.05,4.39,2.05,7.69v1.29h-13.33v-3.12h9.64c-.11-1.6-.53-2.85-1.25-3.75-.72-.9-1.68-1.35-2.89-1.35-1.46,0-2.6.48-3.41,1.45s-1.22,2.33-1.22,4.09v2.51c0,1.64.43,2.89,1.3,3.77.87.88,2.09,1.31,3.67,1.31.79,0,1.57-.16,2.34-.48s1.47-.76,2.08-1.33l2.55,2.55c-.98.94-2.08,1.67-3.29,2.18-1.22.51-2.44.77-3.68.77Z"/>
      <path class="cls-7" d="m84.74,712.55c-2.42,0-4.24-.5-5.46-1.5s-1.82-2.54-1.82-4.61.56-3.44,1.67-4.41c1.11-.97,2.78-1.46,5-1.46h5.62l.27,3.12h-5.87c-1,0-1.76.23-2.27.68-.51.45-.76,1.14-.76,2.07,0,1,.34,1.75,1.01,2.23s1.68.72,3.03.72c1.47,0,2.58-.16,3.31-.48s1.1-.81,1.1-1.49l.4,2.78c-.34.53-.77.97-1.28,1.31s-1.09.6-1.74.77c-.65.17-1.39.26-2.22.26Zm4.84-.29v-12.53c0-1.29-.35-2.3-1.04-3.02-.69-.72-1.67-1.08-2.94-1.08-.77,0-1.54.12-2.29.35-.76.24-1.43.58-2.03,1.02l-2.84-1.94c.75-.9,1.74-1.6,2.96-2.1,1.22-.5,2.59-.75,4.08-.75,2.48,0,4.39.64,5.75,1.92s2.04,3.09,2.04,5.43v12.7h-3.69Z"/>
      <path class="cls-7" d="m107.15,712.55c-2.72,0-4.82-.75-6.31-2.25s-2.24-3.61-2.24-6.34v-3.26c0-2.7.75-4.8,2.24-6.28,1.49-1.48,3.6-2.22,6.31-2.22,1.55,0,2.95.27,4.19.82s2.23,1.33,2.97,2.34l-2.8,2.51c-.54-.63-1.19-1.12-1.94-1.47-.75-.34-1.54-.51-2.36-.51-1.5,0-2.66.42-3.49,1.26s-1.24,2.02-1.24,3.54v3.26c0,1.56.41,2.77,1.24,3.62s1.99,1.28,3.49,1.28c.82,0,1.61-.18,2.36-.55.75-.37,1.4-.89,1.94-1.56l2.8,2.7c-.74.99-1.73,1.76-2.98,2.29-1.25.54-2.64.81-4.18.81Z"/>
      <path class="cls-7" d="m118.6,712.26v-27.69h3.88v27.69h-3.88Zm12,0v-11.98c0-1.4-.36-2.48-1.08-3.24-.72-.76-1.74-1.14-3.06-1.14s-2.25.33-2.94.99c-.69.66-1.04,1.59-1.04,2.8l-.4-3.81c.61-1.17,1.41-2.07,2.39-2.71.98-.64,2.07-.96,3.27-.96,2.15,0,3.81.7,4.98,2.1,1.17,1.4,1.76,3.39,1.76,5.95v12h-3.88Z"/>
      <path class="cls-7" d="m148.48,712.55c-2.76,0-4.89-.77-6.4-2.3-1.51-1.54-2.27-3.72-2.27-6.55v-2.23c0-2.95.73-5.22,2.18-6.84,1.45-1.61,3.5-2.42,6.14-2.42,2.49,0,4.42.91,5.78,2.74,1.36,1.83,2.05,4.39,2.05,7.69v1.29h-13.33v-3.12h9.64c-.11-1.6-.53-2.85-1.25-3.75-.72-.9-1.68-1.35-2.89-1.35-1.46,0-2.6.48-3.41,1.45s-1.22,2.33-1.22,4.09v2.51c0,1.64.43,2.89,1.3,3.77.87.88,2.09,1.31,3.67,1.31.79,0,1.57-.16,2.34-.48s1.47-.76,2.08-1.33l2.55,2.55c-.98.94-2.08,1.67-3.29,2.18-1.22.51-2.44.77-3.67.77Z"/>
      <path class="cls-7" d="m161.29,712.26v-19.77h3.88v19.77h-3.88Zm10.87-15.08c-.34-.42-.77-.74-1.29-.95s-1.12-.32-1.81-.32c-1.23,0-2.19.34-2.87,1.02-.68.68-1.02,1.62-1.02,2.83l-.4-3.81c.6-1.17,1.38-2.08,2.35-2.74.97-.66,2.04-.99,3.21-.99.9,0,1.72.13,2.45.39.73.26,1.37.64,1.91,1.15l-2.53,3.43Z"/>
    </g>
    <g>
      <path class="cls-7" d="m305.68,467.71v-47.57h6.67v47.57h-6.67Zm3.24-41.22v-6.35h27.32v6.35h-27.32Zm0,20.77v-6.35h23.72v6.35h-23.72Zm0,20.45v-6.35h27.32v6.35h-27.32Z"/>
      <path class="cls-7" d="m351.75,420.14v38.8c0,.81.18,1.44.54,1.9.36.46.87.69,1.52.69h3.14v6.35h-3.93c-2.51,0-4.46-.79-5.86-2.36-1.4-1.57-2.09-3.78-2.09-6.64v-38.73h6.67Z"/>
      <path class="cls-7" d="m375.01,468.2c-4.17,0-7.29-.86-9.37-2.58-2.08-1.72-3.12-4.36-3.12-7.92s.95-5.91,2.86-7.57c1.91-1.67,4.77-2.5,8.59-2.5h9.65l.46,5.37h-10.08c-1.72,0-3.02.39-3.89,1.16-.87.77-1.31,1.96-1.31,3.55,0,1.72.58,3,1.73,3.83,1.16.83,2.89,1.24,5.2,1.24,2.53,0,4.43-.27,5.69-.82,1.26-.54,1.9-1.4,1.9-2.55l.69,4.78c-.59.92-1.32,1.67-2.19,2.26-.87.59-1.87,1.03-2.99,1.33-1.12.29-2.39.44-3.81.44Zm8.31-.49v-21.53c0-2.22-.59-3.95-1.78-5.19-1.19-1.23-2.87-1.85-5.05-1.85-1.33,0-2.65.2-3.94.6-1.3.4-2.46.99-3.48,1.75l-4.87-3.34c1.29-1.55,2.98-2.75,5.09-3.61,2.1-.86,4.44-1.29,7.02-1.29,4.25,0,7.55,1.1,9.88,3.3,2.33,2.2,3.5,5.31,3.5,9.32v21.82h-6.35Z"/>
      <path class="cls-7" d="m399.8,467.71v-33.96h6.67v33.96h-6.67Zm18.68-25.91c-.59-.72-1.33-1.26-2.22-1.64-.89-.37-1.93-.56-3.11-.56-2.12,0-3.76.58-4.92,1.75-1.17,1.17-1.75,2.79-1.75,4.86l-.69-6.54c1.03-2.01,2.37-3.58,4.04-4.71,1.67-1.13,3.5-1.7,5.51-1.7,1.55,0,2.95.22,4.2.67,1.25.45,2.35,1.11,3.29,1.98l-4.35,5.89Z"/>
      <path class="cls-7" d="m439.26,468.2c-4.17,0-7.29-.86-9.37-2.58-2.08-1.72-3.12-4.36-3.12-7.92s.95-5.91,2.86-7.57c1.91-1.67,4.77-2.5,8.59-2.5h9.65l.46,5.37h-10.08c-1.72,0-3.02.39-3.89,1.16-.87.77-1.31,1.96-1.31,3.55,0,1.72.58,3,1.73,3.83,1.16.83,2.89,1.24,5.2,1.24,2.53,0,4.43-.27,5.69-.82,1.26-.54,1.9-1.4,1.9-2.55l.69,4.78c-.59.92-1.32,1.67-2.19,2.26-.87.59-1.87,1.03-2.99,1.33-1.12.29-2.39.44-3.81.44Zm8.31-.49v-21.53c0-2.22-.59-3.95-1.78-5.19-1.19-1.23-2.87-1.85-5.05-1.85-1.33,0-2.65.2-3.94.6-1.3.4-2.46.99-3.48,1.75l-4.87-3.34c1.29-1.55,2.98-2.75,5.09-3.61,2.1-.86,4.44-1.29,7.02-1.29,4.25,0,7.55,1.1,9.88,3.3,2.33,2.2,3.5,5.31,3.5,9.32v21.82h-6.35Z"/>
    </g>
  </g>
</svg>